<svg width="28" height="29" viewBox="0 0 28 29" fill="none" xmlns="http://www.w3.org/2000/svg">
<g id="Notifications" clip-path="url(#clip0_13_2593)">
<path id="Vector" d="M14.3205 25.7389C15.5675 25.7389 16.5879 24.7186 16.5879 23.4716H12.0531C12.0531 24.7186 13.0734 25.7389 14.3205 25.7389ZM21.1226 18.9368V13.2683C21.1226 9.78792 19.2747 6.87434 16.021 6.10343V5.33252C16.021 4.39156 15.2615 3.63199 14.3205 3.63199C13.3795 3.63199 12.62 4.39156 12.62 5.33252V6.10343C9.37761 6.87434 7.51836 9.77658 7.51836 13.2683V18.9368L5.25098 21.2042V22.3379H23.39V21.2042L21.1226 18.9368ZM18.8552 20.0705H9.78573V13.2683C9.78573 10.4568 11.4976 8.16675 14.3205 8.16675C17.1434 8.16675 18.8552 10.4568 18.8552 13.2683V20.0705Z" fill="#4D525D"/>
</g>
<defs>
<clipPath id="clip0_13_2593">
<rect width="27.2085" height="27.2085" fill="white" transform="translate(0.717773 0.797729)"/>
</clipPath>
</defs>
</svg>
